<svg version="1.1" id="Layer_1" xmlns="http://www.w3.org/2000/svg" xmlns:xlink="http://www.w3.org/1999/xlink" x="0px" y="0px"
	 width="100%" viewBox="0 0 614 502" enable-background="new 0 0 614 502" xml:space="preserve">
<path fill="#000000" opacity="1.000000" stroke="none" 
	d="
M428.000000,503.000000 
	C285.333374,503.000000 143.166733,503.000000 1.000076,503.000000 
	C1.000051,335.666748 1.000051,168.333481 1.000025,1.000166 
	C205.666550,1.000111 410.333099,1.000111 614.999756,1.000055 
	C614.999817,168.333176 614.999817,335.666351 614.999878,502.999756 
	C552.833313,503.000000 490.666656,503.000000 428.000000,503.000000 
M281.396210,31.000000 
	C274.565735,31.666145 267.616211,31.751305 260.929840,33.120964 
	C247.547516,35.862244 234.008835,38.398277 221.081543,42.672783 
	C201.501450,49.147087 183.447571,58.878464 166.387268,70.722099 
	C147.275970,83.989571 130.795914,99.899292 116.667351,118.083946 
	C100.905327,138.371017 89.011093,160.953140 81.097374,185.534668 
	C73.816124,208.151611 70.591736,231.417389 70.130142,255.055862 
	C69.974228,263.040710 71.387413,271.050964 71.986435,279.056915 
	C73.186661,295.097961 76.371475,310.797638 82.123207,325.744812 
	C87.404221,339.468750 93.479393,352.953613 100.192886,366.036713 
	C104.760124,374.937286 111.031013,382.963593 116.540085,391.380859 
	C117.026718,391.238892 117.513359,391.096924 118.000000,390.954956 
	C118.000000,388.061951 118.000000,385.168976 118.000000,382.275970 
	C118.000000,345.782013 118.122749,309.287201 117.871758,272.794983 
	C117.832718,267.119141 118.744064,263.124298 124.431625,260.747650 
	C127.340080,259.532318 129.713852,257.045776 132.343521,255.153549 
	C152.414200,240.711411 172.486008,226.270828 192.562286,211.836472 
	C206.869843,201.549683 221.182800,191.270370 235.497101,180.992950 
	C254.402344,167.419296 273.287689,153.817490 292.284027,140.372513 
	C293.297363,139.655273 295.703400,139.654343 296.713043,140.372147 
	C310.425720,150.121185 323.952301,160.131439 337.632263,169.927139 
	C355.759857,182.907578 374.018890,195.704437 392.153992,208.674500 
	C415.551239,225.408035 438.811035,242.334839 462.294891,258.945343 
	C467.631653,262.720154 470.296906,266.621002 470.211761,273.730377 
	C469.760773,311.385406 469.990173,349.048737 470.032166,386.709137 
	C470.034058,388.397980 470.506042,390.086334 470.759064,391.774933 
	C471.309662,391.847504 471.860260,391.920105 472.410889,391.992706 
	C479.602997,380.374664 487.590210,369.163147 493.790558,357.037964 
	C501.959656,341.062775 508.362335,324.312439 512.286072,306.598816 
	C516.713806,286.609528 519.828491,266.619812 517.981873,246.110352 
	C517.088806,236.191605 516.338318,226.242523 514.937195,216.390518 
	C511.532166,192.448898 503.392426,170.062714 491.997162,148.788666 
	C478.582062,123.743767 460.898132,102.234879 439.345276,83.739166 
	C425.394226,71.767006 410.251556,61.584774 393.830841,53.565220 
	C378.861359,46.254436 363.397858,39.846695 346.782440,36.965553 
	C335.309326,34.976093 323.900208,32.330151 312.342987,31.200571 
	C302.434662,30.232151 292.356659,31.000006 281.396210,31.000000 
M396.000000,411.500000 
	C396.000000,376.176697 396.035675,340.853241 395.908386,305.530396 
	C395.901031,303.481750 395.174683,300.714386 393.746979,299.522858 
	C388.795197,295.390320 383.380127,291.813873 378.151611,288.011719 
	C363.897614,277.646332 349.635345,267.292236 335.402069,256.898438 
	C322.724579,247.640747 310.112122,238.293503 297.380493,229.111221 
	C295.957703,228.085083 294.280609,226.734650 292.044037,228.398651 
	C279.583252,237.669327 267.028412,246.813660 254.507294,256.003296 
	C235.457840,269.984283 216.481934,284.067688 197.286194,297.844849 
	C194.262039,300.015320 192.917816,302.023834 192.926498,305.756195 
	C193.037842,353.575897 193.051620,401.396118 192.903015,449.215637 
	C192.890991,453.085632 193.981155,455.566925 197.499054,456.845367 
	C211.484299,461.927643 225.446274,467.081421 239.520462,471.906525 
	C243.366089,473.224945 247.573257,473.488800 252.000000,474.307922 
	C252.000000,471.879272 252.000000,470.234375 252.000000,468.589508 
	C252.000000,428.267426 251.982239,387.945343 252.057709,347.623413 
	C252.061127,345.800812 252.290817,343.168579 253.456039,342.282776 
	C265.950165,332.784851 278.615631,323.509644 291.338226,314.317474 
	C293.483002,312.767883 295.920441,311.981689 298.319305,314.693176 
	C300.130493,316.740356 302.503357,318.320679 304.735321,319.960266 
	C314.245117,326.945953 323.813629,333.851624 333.319275,340.842865 
	C335.966736,342.789978 337.119324,345.235443 337.104340,348.834747 
	C336.938477,388.656281 337.000000,428.478760 337.000000,468.300964 
	C337.000000,470.103882 337.000000,471.906830 337.000000,473.997681 
	C338.336670,473.997681 339.335144,474.173676 340.250183,473.971710 
	C358.329834,469.981079 375.848846,464.292847 392.424133,455.997131 
	C394.112122,455.152313 395.797913,452.394806 395.843506,450.485657 
	C396.145782,437.829742 396.000000,425.163116 396.000000,411.500000 
M427.000000,308.500031 
	C427.000000,350.255524 427.000000,392.011047 427.000000,434.377258 
	C428.282898,433.746674 429.064392,433.542480 429.609802,433.067291 
	C437.148529,426.498749 444.686981,419.928619 452.115356,413.236633 
	C452.796265,412.623230 452.964264,411.172943 452.965240,410.110901 
	C453.005768,365.786652 453.021057,321.462341 452.912872,277.138336 
	C452.909088,275.580444 452.058899,273.419617 450.867126,272.558533 
	C424.155060,253.259064 397.320374,234.129532 370.549408,214.911362 
	C346.513123,197.656372 322.556732,180.289673 298.449066,163.135330 
	C296.759888,161.933365 293.820129,161.203705 291.975769,161.812119 
	C289.340363,162.681458 287.174805,164.983063 284.816895,166.684494 
	C258.466736,185.698288 232.133041,204.734894 205.764572,223.723221 
	C184.517807,239.023331 163.255096,254.301651 141.936646,269.501556 
	C138.020096,272.294037 135.783920,275.145691 135.828430,280.608978 
	C136.148819,319.931641 136.450409,359.266724 135.704269,398.577850 
	C135.500931,409.291443 138.315277,417.026062 146.655472,423.203491 
	C149.279724,425.147186 151.569107,427.536957 154.125214,429.580658 
	C156.163437,431.210358 158.374069,432.624390 161.000000,434.482086 
	C161.000000,431.777649 161.000000,429.948151 161.000000,428.118652 
	C161.000000,381.961426 161.010529,335.804199 160.973328,289.647003 
	C160.971146,286.936676 161.019867,284.865295 164.038330,283.231445 
	C168.125092,281.019287 171.670563,277.808685 175.453903,275.034180 
	C195.022705,260.683228 214.569733,246.302429 234.170090,231.994705 
	C252.850677,218.358398 271.696533,204.944534 290.197052,191.069290 
	C293.447205,188.631668 295.526337,188.809402 298.327332,190.839737 
	C310.369324,199.568512 322.474609,208.210693 334.468719,217.004593 
	C363.966003,238.631516 393.384735,260.365753 422.931793,281.924255 
	C425.716431,283.955994 427.243469,285.913177 427.076019,289.507294 
	C426.797150,295.493073 427.000000,301.501282 427.000000,308.500031 
z"/>
<path fill="#FFFFFF" opacity="1.000000" stroke="none" 
	d="
M281.874939,31.000000 
	C292.356659,31.000006 302.434662,30.232151 312.342987,31.200571 
	C323.900208,32.330151 335.309326,34.976093 346.782440,36.965553 
	C363.397858,39.846695 378.861359,46.254436 393.830841,53.565220 
	C410.251556,61.584774 425.394226,71.767006 439.345276,83.739166 
	C460.898132,102.234879 478.582062,123.743767 491.997162,148.788666 
	C503.392426,170.062714 511.532166,192.448898 514.937195,216.390518 
	C516.338318,226.242523 517.088806,236.191605 517.981873,246.110352 
	C519.828491,266.619812 516.713806,286.609528 512.286072,306.598816 
	C508.362335,324.312439 501.959656,341.062775 493.790558,357.037964 
	C487.590210,369.163147 479.602997,380.374664 472.410889,391.992706 
	C471.860260,391.920105 471.309662,391.847504 470.759064,391.774933 
	C470.506042,390.086334 470.034058,388.397980 470.032166,386.709137 
	C469.990173,349.048737 469.760773,311.385406 470.211761,273.730377 
	C470.296906,266.621002 467.631653,262.720154 462.294891,258.945343 
	C438.811035,242.334839 415.551239,225.408035 392.153992,208.674500 
	C374.018890,195.704437 355.759857,182.907578 337.632263,169.927139 
	C323.952301,160.131439 310.425720,150.121185 296.713043,140.372147 
	C295.703400,139.654343 293.297363,139.655273 292.284027,140.372513 
	C273.287689,153.817490 254.402344,167.419296 235.497101,180.992950 
	C221.182800,191.270370 206.869843,201.549683 192.562286,211.836472 
	C172.486008,226.270828 152.414200,240.711411 132.343521,255.153549 
	C129.713852,257.045776 127.340080,259.532318 124.431625,260.747650 
	C118.744064,263.124298 117.832718,267.119141 117.871758,272.794983 
	C118.122749,309.287201 118.000000,345.782013 118.000000,382.275970 
	C118.000000,385.168976 118.000000,388.061951 118.000000,390.954956 
	C117.513359,391.096924 117.026718,391.238892 116.540085,391.380859 
	C111.031013,382.963593 104.760124,374.937286 100.192886,366.036713 
	C93.479393,352.953613 87.404221,339.468750 82.123207,325.744812 
	C76.371475,310.797638 73.186661,295.097961 71.986435,279.056915 
	C71.387413,271.050964 69.974228,263.040710 70.130142,255.055862 
	C70.591736,231.417389 73.816124,208.151611 81.097374,185.534668 
	C89.011093,160.953140 100.905327,138.371017 116.667351,118.083946 
	C130.795914,99.899292 147.275970,83.989571 166.387268,70.722099 
	C183.447571,58.878464 201.501450,49.147087 221.081543,42.672783 
	C234.008835,38.398277 247.547516,35.862244 260.929840,33.120964 
	C267.616211,31.751305 274.565735,31.666145 281.874939,31.000000 
z"/>
<path fill="#FFFFFF" opacity="1.000000" stroke="none" 
	d="
M396.000000,412.000000 
	C396.000000,425.163116 396.145782,437.829742 395.843506,450.485657 
	C395.797913,452.394806 394.112122,455.152313 392.424133,455.997131 
	C375.848846,464.292847 358.329834,469.981079 340.250183,473.971710 
	C339.335144,474.173676 338.336670,473.997681 337.000000,473.997681 
	C337.000000,471.906830 337.000000,470.103882 337.000000,468.300964 
	C337.000000,428.478760 336.938477,388.656281 337.104340,348.834747 
	C337.119324,345.235443 335.966736,342.789978 333.319275,340.842865 
	C323.813629,333.851624 314.245117,326.945953 304.735321,319.960266 
	C302.503357,318.320679 300.130493,316.740356 298.319305,314.693176 
	C295.920441,311.981689 293.483002,312.767883 291.338226,314.317474 
	C278.615631,323.509644 265.950165,332.784851 253.456039,342.282776 
	C252.290817,343.168579 252.061127,345.800812 252.057709,347.623413 
	C251.982239,387.945343 252.000000,428.267426 252.000000,468.589508 
	C252.000000,470.234375 252.000000,471.879272 252.000000,474.307922 
	C247.573257,473.488800 243.366089,473.224945 239.520462,471.906525 
	C225.446274,467.081421 211.484299,461.927643 197.499054,456.845367 
	C193.981155,455.566925 192.890991,453.085632 192.903015,449.215637 
	C193.051620,401.396118 193.037842,353.575897 192.926498,305.756195 
	C192.917816,302.023834 194.262039,300.015320 197.286194,297.844849 
	C216.481934,284.067688 235.457840,269.984283 254.507294,256.003296 
	C267.028412,246.813660 279.583252,237.669327 292.044037,228.398651 
	C294.280609,226.734650 295.957703,228.085083 297.380493,229.111221 
	C310.112122,238.293503 322.724579,247.640747 335.402069,256.898438 
	C349.635345,267.292236 363.897614,277.646332 378.151611,288.011719 
	C383.380127,291.813873 388.795197,295.390320 393.746979,299.522858 
	C395.174683,300.714386 395.901031,303.481750 395.908386,305.530396 
	C396.035675,340.853241 396.000000,376.176697 396.000000,412.000000 
z"/>
<path fill="#FFFFFF" opacity="1.000000" stroke="none" 
	d="
M427.000000,308.000061 
	C427.000000,301.501282 426.797150,295.493073 427.076019,289.507294 
	C427.243469,285.913177 425.716431,283.955994 422.931793,281.924255 
	C393.384735,260.365753 363.966003,238.631516 334.468719,217.004593 
	C322.474609,208.210693 310.369324,199.568512 298.327332,190.839737 
	C295.526337,188.809402 293.447205,188.631668 290.197052,191.069290 
	C271.696533,204.944534 252.850677,218.358398 234.170090,231.994705 
	C214.569733,246.302429 195.022705,260.683228 175.453903,275.034180 
	C171.670563,277.808685 168.125092,281.019287 164.038330,283.231445 
	C161.019867,284.865295 160.971146,286.936676 160.973328,289.647003 
	C161.010529,335.804199 161.000000,381.961426 161.000000,428.118652 
	C161.000000,429.948151 161.000000,431.777649 161.000000,434.482086 
	C158.374069,432.624390 156.163437,431.210358 154.125214,429.580658 
	C151.569107,427.536957 149.279724,425.147186 146.655472,423.203491 
	C138.315277,417.026062 135.500931,409.291443 135.704269,398.577850 
	C136.450409,359.266724 136.148819,319.931641 135.828430,280.608978 
	C135.783920,275.145691 138.020096,272.294037 141.936646,269.501556 
	C163.255096,254.301651 184.517807,239.023331 205.764572,223.723221 
	C232.133041,204.734894 258.466736,185.698288 284.816895,166.684494 
	C287.174805,164.983063 289.340363,162.681458 291.975769,161.812119 
	C293.820129,161.203705 296.759888,161.933365 298.449066,163.135330 
	C322.556732,180.289673 346.513123,197.656372 370.549408,214.911362 
	C397.320374,234.129532 424.155060,253.259064 450.867126,272.558533 
	C452.058899,273.419617 452.909088,275.580444 452.912872,277.138336 
	C453.021057,321.462341 453.005768,365.786652 452.965240,410.110901 
	C452.964264,411.172943 452.796265,412.623230 452.115356,413.236633 
	C444.686981,419.928619 437.148529,426.498749 429.609802,433.067291 
	C429.064392,433.542480 428.282898,433.746674 427.000000,434.377258 
	C427.000000,392.011047 427.000000,350.255524 427.000000,308.000061 
z"/>
</svg>